<?xml version="1.0" standalone="no"?>
<!DOCTYPE svg PUBLIC "-//W3C//DTD SVG 20010904//EN"
 "http://www.w3.org/TR/2001/REC-SVG-20010904/DTD/svg10.dtd">
<svg version="1.0" xmlns="http://www.w3.org/2000/svg"
 width="700.000000pt" height="700.000000pt" viewBox="0 0 700.000000 700.000000"
 preserveAspectRatio="xMidYMid meet">
<metadata>
Created by potrace 1.14, written by Peter Selinger 2001-2017
</metadata>
<g transform="translate(0.000000,700.000000) scale(0.100000,-0.100000)"
fill="#000000" stroke="none">
<path d="M3255 6994 c-22 -2 -89 -9 -150 -14 -1060 -103 -2041 -732 -2608
-1674 -259 -430 -413 -890 -479 -1431 -7 -56 -12 -220 -12 -375 0 -278 7 -370
45 -600 120 -725 476 -1398 1016 -1920 533 -516 1183 -838 1913 -944 261 -38
619 -45 865 -16 812 95 1513 434 2083 1008 439 442 737 967 902 1586 l32 118
-24 26 c-13 14 -163 175 -334 357 -170 181 -733 782 -1249 1335 -516 553 -941
1006 -945 1008 -5 2 -578 -578 -849 -860 l-54 -57 126 -133 c70 -73 203 -212
296 -308 l170 -175 153 152 153 153 838 -838 838 -838 -31 -79 c-46 -115 -149
-314 -224 -433 -324 -511 -822 -905 -1392 -1102 -558 -192 -1180 -192 -1738 0
-881 304 -1546 1051 -1750 1965 -47 210 -60 334 -60 585 0 141 5 273 13 330
50 365 160 703 324 994 386 689 1032 1169 1799 1335 333 72 759 72 1097 -1
234 -50 412 -112 636 -223 720 -355 1249 -1028 1432 -1822 l28 -121 400 -426
c342 -365 401 -424 410 -409 6 12 10 137 10 348 0 353 -7 430 -61 709 -216
1107 -1001 2073 -2049 2521 -289 123 -605 208 -937 250 -116 15 -543 28 -633
19z"/>
<path d="M2216 3394 l-939 -934 639 0 639 0 303 320 c167 176 306 320 310 320
4 0 162 -144 351 -320 l343 -320 597 0 596 0 -190 188 c-626 621 -1698 1677
-1703 1679 -4 1 -429 -419 -946 -933z"/>
</g>
</svg>
