<svg xmlns="http://www.w3.org/2000/svg" xmlns:xlink="http://www.w3.org/1999/xlink"><defs>
<clipPath id="clip0_1914_447">
<rect width="12" height="12" fill="white"/>
</clipPath>

<clipPath id="clip0_1914_443">
<rect width="12" height="12" fill="white"/>
</clipPath>

<clipPath id="clip0_2490_363">
<rect width="144" height="44" fill="white"/>
</clipPath>

<clipPath id="clip0_2478_132">
<rect width="205" height="62" fill="white"/>
</clipPath>
</defs><symbol id="hero-level" viewBox="0 0 12 12"><g fill="none">
<g clip-path="url(#clip0_1914_447)">
<path d="M10.909 11.4545H8.94536V0.54541H10.909V11.4545Z" stroke="white" stroke-miterlimit="16" stroke-linecap="round"/>
<path d="M6.98173 11.4545V3.52062H5.01809L5.0181 11.4545H6.98173Z" stroke="white" stroke-miterlimit="16" stroke-linecap="round"/>
<path d="M3.05446 11.4545V6.49582H1.09082V11.4545H3.05446Z" stroke="white" stroke-miterlimit="16" stroke-linecap="round"/>
</g>

</g></symbol><symbol id="hero-moon" viewBox="0 0 12 12"><g fill="none">
<g clip-path="url(#clip0_1914_443)">
<path d="M11.1966 6.75379C11.0851 6.72581 10.9736 6.75379 10.876 6.82374C10.5135 7.13153 10.0953 7.38335 9.6352 7.55123C9.20301 7.71912 8.72901 7.80306 8.22712 7.80306C7.09786 7.80306 6.0662 7.34138 5.32731 6.5999C4.58841 5.85842 4.12835 4.82314 4.12835 3.68994C4.12835 3.21427 4.212 2.75259 4.35141 2.33289C4.50477 1.8852 4.72783 1.47949 5.0206 1.12973C5.14607 0.975839 5.11819 0.751995 4.96483 0.626083C4.86724 0.556132 4.75571 0.528152 4.64418 0.556132C3.45916 0.877907 2.4275 1.59141 1.6886 2.54274C0.977593 3.48008 0.54541 4.64127 0.54541 5.91438C0.54541 7.43931 1.15883 8.82434 2.16261 9.83164C3.16639 10.8389 4.54659 11.4545 6.0662 11.4545C7.34881 11.4545 8.53383 11.0068 9.48184 10.2653C10.4438 9.50986 11.1409 8.43262 11.4336 7.20148C11.5033 6.99163 11.3918 6.79576 11.1966 6.75379ZM9.0636 9.67774C8.255 10.3213 7.22334 10.713 6.09408 10.713C4.76965 10.713 3.57069 10.1674 2.70633 9.30001C1.84196 8.43262 1.29825 7.22946 1.29825 5.90039C1.29825 4.79516 1.66072 3.78787 2.28808 2.97644C2.72027 2.41683 3.26398 1.95515 3.89134 1.63338C3.82164 1.78727 3.75193 1.94116 3.69617 2.10904C3.51493 2.61269 3.43128 3.14432 3.43128 3.70393C3.43128 5.033 3.97499 6.25015 4.83936 7.11754C5.70373 7.98493 6.91663 8.53055 8.24106 8.53055C8.8266 8.53055 9.38425 8.43262 9.90008 8.23675C10.0813 8.1668 10.2626 8.09685 10.4299 8.01291C10.0953 8.65646 9.6352 9.23006 9.0636 9.67774Z" fill="white"/>
</g>

</g></symbol><symbol id="logo-header-opened-menu" viewBox="0 0 144 44"><g fill="none">
<g clip-path="url(#clip0_2490_363)">
<path d="M15.953 28.5418L19.7742 24.4714L24.1207 28.5418H31.5719L19.7264 16.7665L7.97639 28.5418H15.953Z" fill="#2D383F"/>
<path d="M26.8913 9.64317L21.2551 15.4581L24.9807 19.3348L26.8913 17.3965L37.3516 27.9604C34.9634 34.4053 28.8496 39.0088 21.6372 39.0088C12.3709 39.0088 4.87195 31.4009 4.87195 22C4.91971 12.5991 12.4187 4.99119 21.685 4.99119C29.9004 4.99119 36.7784 11.0485 38.1636 18.9471L43.2266 24.3744C43.3221 23.5991 43.3699 22.7753 43.3699 22C43.3699 16.1366 41.125 10.6123 37.0173 6.44493C32.9095 2.27753 27.4644 0 21.685 0C15.8577 0 10.4604 2.27753 6.35264 6.44493C2.24492 10.6123 0 16.0881 0 22C0 27.9119 2.24492 33.3877 6.35264 37.5551C10.4604 41.7225 15.9055 44 21.685 44C27.4644 44 32.9095 41.7225 37.0173 37.5551C39.5488 34.9868 41.3638 31.9339 42.3669 28.5903C42.5579 28.0088 42.7012 27.3789 42.8445 26.7974L38.4502 22.0969L26.8913 9.64317Z" fill="#2D383F"/>
<path d="M61.2624 14.1371H64.4512L62.7118 23.0093H68.091L67.5757 25.5746H59.0076L61.2624 14.1371Z" fill="#2D383F"/>
<path d="M71.0923 14.1371H74.2811L72.0264 25.5746H68.8375L71.0923 14.1371Z" fill="#2D383F"/>
<path d="M79.2394 16.637L78.7402 19.1532H83.7167L83.2175 21.6532H78.257L77.484 25.5746H74.2951L76.5499 14.1371H85.3756L84.8763 16.637H79.2394Z" fill="#2D383F"/>
<path d="M89.5243 16.637L89.1539 18.565H94.1627L93.6956 20.9832H88.6708L88.2681 23.0747H94.1788L93.6634 25.5746H84.6283L86.8831 14.1371H95.7088L95.2095 16.637H89.5243Z" fill="#2D383F"/>
<path d="M99.5882 16.7023H96.1255L96.6409 14.1371H106.739L106.224 16.7023H102.777L101.022 25.5746H97.8327L99.5882 16.7023Z" fill="#2D383F"/>
<path d="M111.603 25.8033C110.465 25.8033 109.471 25.5909 108.623 25.1661C107.786 24.7413 107.136 24.1476 106.675 23.3851C106.224 22.6226 105.998 21.7512 105.998 20.7708C105.998 19.4637 106.293 18.2873 106.884 17.2415C107.485 16.1958 108.317 15.3789 109.38 14.7906C110.454 14.2024 111.673 13.9083 113.036 13.9083C114.174 13.9083 115.162 14.1207 116 14.5456C116.848 14.9704 117.497 15.564 117.948 16.3265C118.41 17.089 118.641 17.9605 118.641 18.9408C118.641 20.248 118.34 21.4244 117.739 22.4701C117.148 23.5158 116.316 24.3328 115.243 24.921C114.18 25.5092 112.966 25.8033 111.603 25.8033ZM111.877 23.1237C112.585 23.1237 113.208 22.944 113.745 22.5845C114.282 22.225 114.695 21.7457 114.985 21.1466C115.275 20.5366 115.42 19.8667 115.42 19.1369C115.42 18.3635 115.184 17.7481 114.711 17.2906C114.249 16.8222 113.6 16.588 112.762 16.588C112.054 16.588 111.431 16.7677 110.894 17.1272C110.357 17.4866 109.944 17.9714 109.654 18.5814C109.364 19.1805 109.219 19.8449 109.219 20.5748C109.219 21.3482 109.45 21.969 109.912 22.4374C110.384 22.8949 111.039 23.1237 111.877 23.1237Z" fill="#2D383F"/>
<path d="M124.627 25.8033C123.65 25.8033 122.807 25.64 122.099 25.3132C121.39 24.9755 120.848 24.4962 120.472 23.8753C120.096 23.2544 119.908 22.5246 119.908 21.6858C119.908 21.3373 119.951 20.9342 120.037 20.4767L121.293 14.1371H124.482L123.242 20.4277C123.178 20.7545 123.146 21.054 123.146 21.3264C123.146 22.5246 123.768 23.1237 125.014 23.1237C125.69 23.1237 126.222 22.9167 126.608 22.5028C127.005 22.078 127.301 21.3863 127.494 20.4277L128.734 14.1371H131.875L130.602 20.6238C129.915 24.0768 127.923 25.8033 124.627 25.8033Z" fill="#2D383F"/>
<path d="M143.408 17.7807C143.408 18.8265 143.134 19.7306 142.587 20.4931C142.039 21.2447 141.272 21.7948 140.284 22.1433L142.2 25.5746H138.866L137.191 22.5355H135.581L134.985 25.5746H131.796L134.051 14.1371H138.866C140.305 14.1371 141.422 14.4584 142.216 15.1011C143.011 15.7438 143.408 16.637 143.408 17.7807ZM140.187 18.0912C140.187 17.6228 140.031 17.2742 139.72 17.0455C139.409 16.8058 138.974 16.686 138.415 16.686H136.741L136.064 20.0356H137.965C138.673 20.0356 139.221 19.8667 139.607 19.529C139.994 19.1914 140.187 18.7121 140.187 18.0912Z" fill="#2D383F"/>
<path d="M61.1307 36.359C60.7423 36.359 60.3894 36.2718 60.072 36.0975C59.7583 35.9194 59.5118 35.677 59.3325 35.3701C59.157 35.0632 59.0692 34.7184 59.0692 34.3357C59.0692 33.953 59.157 33.6083 59.3325 33.3014C59.5118 32.9945 59.7583 32.7539 60.072 32.5796C60.3894 32.4015 60.7423 32.3125 61.1307 32.3125C61.5191 32.3125 61.8683 32.3996 62.1783 32.5739C62.492 32.7482 62.7385 32.9907 62.9177 33.3014C63.097 33.6083 63.1866 33.953 63.1866 34.3357C63.1866 34.7184 63.097 35.0651 62.9177 35.3758C62.7385 35.6826 62.492 35.9232 62.1783 36.0975C61.8683 36.2718 61.5191 36.359 61.1307 36.359ZM61.1307 35.9839C61.4407 35.9839 61.7208 35.9138 61.971 35.7736C62.2212 35.6296 62.4173 35.4326 62.5592 35.1825C62.7011 34.9287 62.7721 34.6464 62.7721 34.3357C62.7721 34.025 62.7011 33.7447 62.5592 33.4946C62.4173 33.2407 62.2212 33.0437 61.971 32.9035C61.7208 32.7596 61.4407 32.6876 61.1307 32.6876C60.8207 32.6876 60.5388 32.7596 60.2848 32.9035C60.0346 33.0437 59.8367 33.2407 59.691 33.4946C59.5491 33.7447 59.4782 34.025 59.4782 34.3357C59.4782 34.6464 59.5491 34.9287 59.691 35.1825C59.8367 35.4326 60.0346 35.6296 60.2848 35.7736C60.5388 35.9138 60.8207 35.9839 61.1307 35.9839Z" fill="#2D383F"/>
<path d="M65.5987 33.3127C65.875 33.3127 66.1253 33.3771 66.3493 33.506C66.5734 33.631 66.7489 33.8091 66.8759 34.0402C67.0029 34.2713 67.0664 34.5346 67.0664 34.8302C67.0664 35.1295 67.0029 35.3947 66.8759 35.6258C66.7489 35.8569 66.5734 36.0369 66.3493 36.1657C66.129 36.2908 65.8788 36.3533 65.5987 36.3533C65.3597 36.3533 65.1431 36.304 64.9489 36.2055C64.7584 36.1032 64.6015 35.9554 64.4783 35.7622V37.4274H64.0806V33.3355H64.4615V33.9265C64.581 33.7295 64.7379 33.578 64.9321 33.4719C65.13 33.3658 65.3522 33.3127 65.5987 33.3127ZM65.5707 35.9952C65.7761 35.9952 65.9628 35.9479 66.1309 35.8531C66.2989 35.7546 66.4296 35.6163 66.523 35.4383C66.6201 35.2602 66.6686 35.0575 66.6686 34.8302C66.6686 34.6028 66.6201 34.402 66.523 34.2277C66.4296 34.0497 66.2989 33.9114 66.1309 33.8129C65.9628 33.7144 65.7761 33.6651 65.5707 33.6651C65.3615 33.6651 65.1729 33.7144 65.0049 33.8129C64.8406 33.9114 64.7099 34.0497 64.6128 34.2277C64.5194 34.402 64.4727 34.6028 64.4727 34.8302C64.4727 35.0575 64.5194 35.2602 64.6128 35.4383C64.7099 35.6163 64.8406 35.7546 65.0049 35.8531C65.1729 35.9479 65.3615 35.9952 65.5707 35.9952Z" fill="#2D383F"/>
<path d="M70.0048 33.6935H68.3186V36.3249H67.9209V33.3355H70.0048V33.6935Z" fill="#2D383F"/>
<path d="M71.5935 33.3127C71.9782 33.3127 72.2732 33.4112 72.4786 33.6083C72.684 33.8015 72.7867 34.0894 72.7867 34.4721V36.3249H72.4058V35.8588C72.3162 36.0142 72.1836 36.1354 72.0081 36.2226C71.8363 36.3097 71.6309 36.3533 71.3919 36.3533C71.0632 36.3533 70.8018 36.2737 70.6076 36.1146C70.4134 35.9554 70.3163 35.7452 70.3163 35.4837C70.3163 35.2299 70.406 35.0253 70.5852 34.8699C70.7682 34.7146 71.0576 34.6369 71.4535 34.6369H72.389V34.4551C72.389 34.1974 72.318 34.0023 72.1761 33.8697C72.0342 33.7333 71.827 33.6651 71.5543 33.6651C71.3676 33.6651 71.1883 33.6973 71.0165 33.7617C70.8448 33.8223 70.6973 33.9076 70.574 34.0175L70.3947 33.7162C70.5441 33.5874 70.7234 33.4889 70.9325 33.4207C71.1417 33.3487 71.362 33.3127 71.5935 33.3127ZM71.4535 36.035C71.6776 36.035 71.8699 35.9839 72.0305 35.8816C72.1911 35.7755 72.3106 35.6239 72.389 35.4269V34.9381H71.4647C70.9605 34.9381 70.7084 35.1162 70.7084 35.4724C70.7084 35.6467 70.7738 35.7849 70.9045 35.8872C71.0352 35.9858 71.2182 36.035 71.4535 36.035Z" fill="#2D383F"/>
<path d="M73.8455 33.3355H74.2433V34.6597H76.0975V33.3355H76.4952V36.3249H76.0975V35.0063H74.2433V36.3249H73.8455V33.3355Z" fill="#2D383F"/>
<path d="M77.6257 33.3355H78.0234V35.7111L79.9897 33.3355H80.3426V36.3249H79.9449V33.9493L77.9842 36.3249H77.6257V33.3355Z" fill="#2D383F"/>
<path d="M82.8563 34.7676C83.0655 34.8169 83.2261 34.9021 83.3381 35.0234C83.4539 35.1446 83.5118 35.2924 83.5118 35.4667C83.5118 35.641 83.452 35.7963 83.3325 35.9327C83.2167 36.0691 83.058 36.1752 82.8563 36.251C82.6547 36.323 82.4325 36.359 82.1897 36.359C81.9768 36.359 81.7677 36.3286 81.5623 36.268C81.3569 36.2036 81.1777 36.1108 81.0245 35.9895L81.159 35.6883C81.2934 35.7906 81.4503 35.8702 81.6295 35.927C81.8088 35.9839 81.9899 36.0123 82.1729 36.0123C82.4455 36.0123 82.6677 35.9611 82.8395 35.8588C83.0151 35.7527 83.1028 35.6107 83.1028 35.4326C83.1028 35.2735 83.0319 35.1503 82.89 35.0632C82.748 34.9722 82.5538 34.9268 82.3074 34.9268H81.8032V34.6312H82.285C82.5053 34.6312 82.6827 34.5896 82.8171 34.5062C82.9516 34.4191 83.0188 34.3035 83.0188 34.1595C83.0188 34.0004 82.9422 33.8754 82.7891 33.7844C82.6397 33.6935 82.4437 33.648 82.2009 33.648C81.8835 33.648 81.5698 33.7295 81.2598 33.8924L81.1478 33.5798C81.4988 33.3942 81.8629 33.3014 82.2401 33.3014C82.4642 33.3014 82.6659 33.3355 82.8451 33.4037C83.0281 33.4681 83.17 33.5609 83.2709 33.6821C83.3754 33.8034 83.4277 33.9436 83.4277 34.1027C83.4277 34.2543 83.3754 34.3888 83.2709 34.5062C83.17 34.6237 83.0319 34.7108 82.8563 34.7676Z" fill="#2D383F"/>
<path d="M85.4286 33.3127C85.8133 33.3127 86.1083 33.4112 86.3137 33.6083C86.5191 33.8015 86.6218 34.0894 86.6218 34.4721V36.3249H86.2409V35.8588C86.1512 36.0142 86.0187 36.1354 85.8431 36.2226C85.6713 36.3097 85.4659 36.3533 85.2269 36.3533C84.8983 36.3533 84.6369 36.2737 84.4427 36.1146C84.2485 35.9554 84.1514 35.7452 84.1514 35.4837C84.1514 35.2299 84.241 35.0253 84.4203 34.8699C84.6033 34.7146 84.8927 34.6369 85.2886 34.6369H86.2241V34.4551C86.2241 34.1974 86.1531 34.0023 86.0112 33.8697C85.8693 33.7333 85.662 33.6651 85.3894 33.6651C85.2027 33.6651 85.0234 33.6973 84.8516 33.7617C84.6798 33.8223 84.5323 33.9076 84.4091 34.0175L84.2298 33.7162C84.3792 33.5874 84.5584 33.4889 84.7676 33.4207C84.9767 33.3487 85.1971 33.3127 85.4286 33.3127ZM85.2886 36.035C85.5126 36.035 85.705 35.9839 85.8655 35.8816C86.0261 35.7755 86.1456 35.6239 86.2241 35.4269V34.9381H85.2998C84.7956 34.9381 84.5435 35.1162 84.5435 35.4724C84.5435 35.6467 84.6089 35.7849 84.7396 35.8872C84.8703 35.9858 85.0533 36.035 85.2886 36.035Z" fill="#2D383F"/>
<path d="M90.7504 35.9725V37.075H90.3751V36.3249H87.6806V33.3355H88.0783V35.9725H89.8765V33.3355H90.2742V35.9725H90.7504Z" fill="#2D383F"/>
<path d="M91.51 33.3355H91.9077V35.7111L93.874 33.3355H94.2269V36.3249H93.8291V33.9493L91.8685 36.3249H91.51V33.3355Z" fill="#2D383F"/>
<path d="M97.6299 33.3355V36.3249H97.2658V35.336H96.2294L95.546 36.3249H95.1146L95.8485 35.2791C95.6207 35.2147 95.4452 35.1049 95.3219 34.9495C95.1987 34.7942 95.1371 34.5971 95.1371 34.3584C95.1371 34.025 95.2491 33.7712 95.4732 33.5969C95.6972 33.4226 96.0035 33.3355 96.3919 33.3355H97.6299ZM95.5404 34.3698C95.5404 34.8131 95.8186 35.0348 96.3751 35.0348H97.2658V33.6935H96.4031C95.8279 33.6935 95.5404 33.9189 95.5404 34.3698Z" fill="#2D383F"/>
<path d="M102.874 33.3355V36.3249H102.476V33.6935H100.628V36.3249H100.23V33.3355H102.874Z" fill="#2D383F"/>
<path d="M105.22 36.3533C104.937 36.3533 104.681 36.2889 104.453 36.16C104.225 36.0274 104.046 35.8456 103.915 35.6144C103.784 35.3833 103.719 35.1219 103.719 34.8302C103.719 34.5384 103.784 34.277 103.915 34.0459C104.046 33.8148 104.225 33.6348 104.453 33.506C104.681 33.3771 104.937 33.3127 105.22 33.3127C105.504 33.3127 105.76 33.3771 105.988 33.506C106.216 33.6348 106.393 33.8148 106.52 34.0459C106.651 34.277 106.716 34.5384 106.716 34.8302C106.716 35.1219 106.651 35.3833 106.52 35.6144C106.393 35.8456 106.216 36.0274 105.988 36.16C105.76 36.2889 105.504 36.3533 105.22 36.3533ZM105.22 35.9952C105.429 35.9952 105.616 35.9479 105.781 35.8531C105.949 35.7546 106.079 35.6163 106.173 35.4383C106.266 35.2602 106.313 35.0575 106.313 34.8302C106.313 34.6028 106.266 34.4001 106.173 34.2221C106.079 34.044 105.949 33.9076 105.781 33.8129C105.616 33.7144 105.429 33.6651 105.22 33.6651C105.011 33.6651 104.823 33.7144 104.655 33.8129C104.49 33.9076 104.36 34.044 104.262 34.2221C104.169 34.4001 104.122 34.6028 104.122 34.8302C104.122 35.0575 104.169 35.2602 104.262 35.4383C104.36 35.6163 104.49 35.7546 104.655 35.8531C104.823 35.9479 105.011 35.9952 105.22 35.9952Z" fill="#2D383F"/>
<path d="M109.305 36.3249L108.37 35.0745L107.429 36.3249H106.98L108.146 34.7904L107.036 33.3355H107.485L108.37 34.5062L109.255 33.3355H109.692L108.583 34.7904L109.759 36.3249H109.305Z" fill="#2D383F"/>
<path d="M111.522 36.3533C111.239 36.3533 110.983 36.2889 110.755 36.16C110.527 36.0274 110.348 35.8456 110.217 35.6144C110.086 35.3833 110.021 35.1219 110.021 34.8302C110.021 34.5384 110.086 34.277 110.217 34.0459C110.348 33.8148 110.527 33.6348 110.755 33.506C110.983 33.3771 111.239 33.3127 111.522 33.3127C111.806 33.3127 112.062 33.3771 112.29 33.506C112.518 33.6348 112.695 33.8148 112.822 34.0459C112.953 34.277 113.018 34.5384 113.018 34.8302C113.018 35.1219 112.953 35.3833 112.822 35.6144C112.695 35.8456 112.518 36.0274 112.29 36.16C112.062 36.2889 111.806 36.3533 111.522 36.3533ZM111.522 35.9952C111.732 35.9952 111.918 35.9479 112.083 35.8531C112.251 35.7546 112.381 35.6163 112.475 35.4383C112.568 35.2602 112.615 35.0575 112.615 34.8302C112.615 34.6028 112.568 34.4001 112.475 34.2221C112.381 34.044 112.251 33.9076 112.083 33.8129C111.918 33.7144 111.732 33.6651 111.522 33.6651C111.313 33.6651 111.125 33.7144 110.957 33.8129C110.792 33.9076 110.662 34.044 110.565 34.2221C110.471 34.4001 110.424 34.6028 110.424 34.8302C110.424 35.0575 110.471 35.2602 110.565 35.4383C110.662 35.6163 110.792 35.7546 110.957 35.8531C111.125 35.9479 111.313 35.9952 111.522 35.9952Z" fill="#2D383F"/>
<path d="M116.726 35.9725V37.0466H116.35V36.3249H113.712V37.0466H113.336V35.9725H113.504C113.702 35.9611 113.837 35.8134 113.908 35.5292C113.979 35.245 114.027 34.8472 114.053 34.3357L114.093 33.3355H116.266V35.9725H116.726ZM114.418 34.3584C114.399 34.7828 114.363 35.1333 114.311 35.4099C114.259 35.6826 114.165 35.8702 114.031 35.9725H115.868V33.6935H114.451L114.418 34.3584Z" fill="#2D383F"/>
<path d="M118.716 36.3533C118.432 36.3533 118.177 36.2889 117.949 36.16C117.721 36.0274 117.542 35.8456 117.411 35.6144C117.28 35.3833 117.215 35.1219 117.215 34.8302C117.215 34.5384 117.28 34.277 117.411 34.0459C117.542 33.8148 117.721 33.6348 117.949 33.506C118.177 33.3771 118.432 33.3127 118.716 33.3127C119 33.3127 119.256 33.3771 119.484 33.506C119.712 33.6348 119.889 33.8148 120.016 34.0459C120.147 34.277 120.212 34.5384 120.212 34.8302C120.212 35.1219 120.147 35.3833 120.016 35.6144C119.889 35.8456 119.712 36.0274 119.484 36.16C119.256 36.2889 119 36.3533 118.716 36.3533ZM118.716 35.9952C118.925 35.9952 119.112 35.9479 119.276 35.8531C119.444 35.7546 119.575 35.6163 119.669 35.4383C119.762 35.2602 119.809 35.0575 119.809 34.8302C119.809 34.6028 119.762 34.4001 119.669 34.2221C119.575 34.044 119.444 33.9076 119.276 33.8129C119.112 33.7144 118.925 33.6651 118.716 33.6651C118.507 33.6651 118.318 33.7144 118.15 33.8129C117.986 33.9076 117.855 34.044 117.758 34.2221C117.665 34.4001 117.618 34.6028 117.618 34.8302C117.618 35.0575 117.665 35.2602 117.758 35.4383C117.855 35.6163 117.986 35.7546 118.15 35.8531C118.318 35.9479 118.507 35.9952 118.716 35.9952Z" fill="#2D383F"/>
<path d="M122.939 34.779C123.338 34.8737 123.538 35.1181 123.538 35.5121C123.538 35.7736 123.443 35.9744 123.252 36.1146C123.062 36.2548 122.778 36.3249 122.401 36.3249H121.062V33.3355H122.362C122.698 33.3355 122.961 33.4018 123.151 33.5344C123.342 33.667 123.437 33.8564 123.437 34.1027C123.437 34.2656 123.392 34.4058 123.303 34.5233C123.217 34.6369 123.095 34.7222 122.939 34.779ZM121.449 34.6653H122.334C122.561 34.6653 122.735 34.6218 122.855 34.5346C122.978 34.4475 123.039 34.3206 123.039 34.1539C123.039 33.9871 122.978 33.8621 122.855 33.7788C122.735 33.6954 122.561 33.6537 122.334 33.6537H121.449V34.6653ZM122.384 36.0066C122.638 36.0066 122.828 35.9649 122.955 35.8816C123.082 35.7982 123.146 35.6675 123.146 35.4894C123.146 35.3113 123.088 35.1806 122.972 35.0973C122.856 35.0101 122.673 34.9666 122.423 34.9666H121.449V36.0066H122.384Z" fill="#2D383F"/>
<path d="M127.813 34.779C128.212 34.8737 128.412 35.1181 128.412 35.5121C128.412 35.7736 128.317 35.9744 128.127 36.1146C127.936 36.2548 127.652 36.3249 127.275 36.3249H125.936V33.3355H127.236C127.572 33.3355 127.835 33.4018 128.026 33.5344C128.216 33.667 128.311 33.8564 128.311 34.1027C128.311 34.2656 128.267 34.4058 128.177 34.5233C128.091 34.6369 127.97 34.7222 127.813 34.779ZM126.323 34.6653H127.208C127.436 34.6653 127.609 34.6218 127.729 34.5346C127.852 34.4475 127.914 34.3206 127.914 34.1539C127.914 33.9871 127.852 33.8621 127.729 33.7788C127.609 33.6954 127.436 33.6537 127.208 33.6537H126.323V34.6653ZM127.258 36.0066C127.512 36.0066 127.703 35.9649 127.83 35.8816C127.957 35.7982 128.02 35.6675 128.02 35.4894C128.02 35.3113 127.962 35.1806 127.846 35.0973C127.731 35.0101 127.548 34.9666 127.297 34.9666H126.323V36.0066H127.258Z" fill="#2D383F"/>
<path d="M132.894 33.6935H131.208V36.3249H130.811V33.3355H132.894V33.6935Z" fill="#2D383F"/>
<path d="M134.548 36.3533C134.264 36.3533 134.008 36.2889 133.781 36.16C133.553 36.0274 133.374 35.8456 133.243 35.6144C133.112 35.3833 133.047 35.1219 133.047 34.8302C133.047 34.5384 133.112 34.277 133.243 34.0459C133.374 33.8148 133.553 33.6348 133.781 33.506C134.008 33.3771 134.264 33.3127 134.548 33.3127C134.832 33.3127 135.088 33.3771 135.316 33.506C135.543 33.6348 135.721 33.8148 135.848 34.0459C135.978 34.277 136.044 34.5384 136.044 34.8302C136.044 35.1219 135.978 35.3833 135.848 35.6144C135.721 35.8456 135.543 36.0274 135.316 36.16C135.088 36.2889 134.832 36.3533 134.548 36.3533ZM134.548 35.9952C134.757 35.9952 134.944 35.9479 135.108 35.8531C135.276 35.7546 135.407 35.6163 135.5 35.4383C135.594 35.2602 135.64 35.0575 135.64 34.8302C135.64 34.6028 135.594 34.4001 135.5 34.2221C135.407 34.044 135.276 33.9076 135.108 33.8129C134.944 33.7144 134.757 33.6651 134.548 33.6651C134.339 33.6651 134.15 33.7144 133.982 33.8129C133.818 33.9076 133.687 34.044 133.59 34.2221C133.497 34.4001 133.45 34.6028 133.45 34.8302C133.45 35.0575 133.497 35.2602 133.59 35.4383C133.687 35.6163 133.818 35.7546 133.982 35.8531C134.15 35.9479 134.339 35.9952 134.548 35.9952Z" fill="#2D383F"/>
<path d="M138.412 33.3127C138.688 33.3127 138.938 33.3771 139.163 33.506C139.387 33.631 139.562 33.8091 139.689 34.0402C139.816 34.2713 139.88 34.5346 139.88 34.8302C139.88 35.1295 139.816 35.3947 139.689 35.6258C139.562 35.8569 139.387 36.0369 139.163 36.1657C138.942 36.2908 138.692 36.3533 138.412 36.3533C138.173 36.3533 137.956 36.304 137.762 36.2055C137.572 36.1032 137.415 35.9554 137.292 35.7622V37.4274H136.894V33.3355H137.275V33.9265C137.394 33.7295 137.551 33.578 137.745 33.4719C137.943 33.3658 138.165 33.3127 138.412 33.3127ZM138.384 35.9952C138.589 35.9952 138.776 35.9479 138.944 35.8531C139.112 35.7546 139.243 35.6163 139.336 35.4383C139.433 35.2602 139.482 35.0575 139.482 34.8302C139.482 34.6028 139.433 34.402 139.336 34.2277C139.243 34.0497 139.112 33.9114 138.944 33.8129C138.776 33.7144 138.589 33.6651 138.384 33.6651C138.175 33.6651 137.986 33.7144 137.818 33.8129C137.654 33.9114 137.523 34.0497 137.426 34.2277C137.333 34.402 137.286 34.6028 137.286 34.8302C137.286 35.0575 137.333 35.2602 137.426 35.4383C137.523 35.6163 137.654 35.7546 137.818 35.8531C137.986 35.9479 138.175 35.9952 138.384 35.9952Z" fill="#2D383F"/>
<path d="M141.972 34.3926C142.342 34.3963 142.624 34.4797 142.818 34.6426C143.012 34.8055 143.109 35.0404 143.109 35.3473C143.109 35.6656 143.005 35.91 142.796 36.0805C142.586 36.251 142.288 36.3343 141.899 36.3305L140.734 36.3249V33.3355H141.132V34.3812L141.972 34.3926ZM143.602 33.3355H144V36.3249H143.602V33.3355ZM141.877 36.0236C142.15 36.0274 142.355 35.9725 142.493 35.8588C142.635 35.7414 142.706 35.5709 142.706 35.3473C142.706 35.1276 142.637 34.9647 142.499 34.8586C142.361 34.7525 142.153 34.6976 141.877 34.6938L141.132 34.6824V36.0123L141.877 36.0236Z" fill="#2D383F"/>
</g>

</g></symbol><symbol id="logo-header" viewBox="0 0 205 62"><g fill="none">
<g clip-path="url(#clip0_2478_132)">
<path d="M22.7109 40.218L28.1507 34.4824L34.3385 40.218H44.9461L28.0827 23.6255L11.3553 40.218H22.7109Z" fill="white"/>
<path d="M38.2827 13.5881L30.259 21.7819L35.5628 27.2445L38.2827 24.5132L53.1742 39.3987C49.7743 48.4802 41.0706 54.967 30.8029 54.967C17.6114 54.967 6.93576 44.2467 6.93576 31C7.00376 17.7533 17.6794 7.03304 30.8709 7.03304C42.5665 7.03304 52.3582 15.5683 54.3301 26.6982L61.5379 34.3458C61.6739 33.2533 61.7419 32.0925 61.7419 31C61.7419 22.7379 58.546 14.9537 52.6982 9.0815C46.8504 3.20925 39.0987 0 30.8709 0C22.5752 0 14.8915 3.20925 9.04369 9.0815C3.19589 14.9537 0 22.6696 0 31C0 39.3304 3.19589 47.0463 9.04369 52.9185C14.8915 58.7907 22.6432 62 30.8709 62C39.0987 62 46.8504 58.7907 52.6982 52.9185C56.3021 49.2996 58.886 44.9978 60.3139 40.2863C60.5859 39.467 60.7899 38.5793 60.9939 37.7599L54.7381 31.1366L38.2827 13.5881Z" fill="white"/>
<path d="M87.2138 19.9204H91.7535L89.2773 32.4222H96.9351L96.2015 36.0369H84.0039L87.2138 19.9204Z" fill="white"/>
<path d="M101.208 19.9204H105.747L102.538 36.0369H97.9979L101.208 19.9204Z" fill="white"/>
<path d="M112.806 23.443L112.095 26.9887H119.18L118.469 30.5113H111.408L110.307 36.0369H105.767L108.977 19.9204H121.542L120.831 23.443H112.806Z" fill="white"/>
<path d="M127.448 23.443L126.921 26.1598H134.051L133.386 29.5673H126.233L125.659 32.5143H134.074L133.34 36.0369H120.478L123.688 19.9204H136.252L135.541 23.443H127.448Z" fill="white"/>
<path d="M141.775 23.5351H136.845L137.579 19.9204H151.955L151.221 23.5351H146.315L143.815 36.0369H139.276L141.775 23.5351Z" fill="white"/>
<path d="M158.879 36.3593C157.259 36.3593 155.845 36.06 154.637 35.4613C153.445 34.8627 152.52 34.0262 151.863 32.9518C151.221 31.8773 150.9 30.6494 150.9 29.268C150.9 27.4261 151.32 25.7684 152.161 24.2949C153.017 22.8214 154.202 21.6702 155.715 20.8414C157.243 20.0125 158.978 19.5981 160.919 19.5981C162.54 19.5981 163.946 19.8974 165.138 20.496C166.346 21.0946 167.27 21.9311 167.912 23.0056C168.57 24.08 168.898 25.3079 168.898 26.6893C168.898 28.5312 168.47 30.1889 167.614 31.6624C166.774 33.136 165.589 34.2871 164.061 35.116C162.547 35.9448 160.82 36.3593 158.879 36.3593ZM159.269 32.5834C160.278 32.5834 161.164 32.3301 161.928 31.8236C162.693 31.3171 163.281 30.6417 163.694 29.7975C164.106 28.938 164.313 27.994 164.313 26.9656C164.313 25.8758 163.977 25.0086 163.304 24.364C162.647 23.704 161.722 23.374 160.53 23.374C159.521 23.374 158.634 23.6272 157.87 24.1337C157.106 24.6402 156.517 25.3233 156.105 26.1828C155.692 27.027 155.486 27.9633 155.486 28.9917C155.486 30.0815 155.814 30.9564 156.471 31.6164C157.144 32.2611 158.076 32.5834 159.269 32.5834Z" fill="white"/>
<path d="M177.421 36.3593C176.03 36.3593 174.83 36.129 173.821 35.6686C172.812 35.1927 172.04 34.5174 171.505 33.6425C170.97 32.7676 170.703 31.7392 170.703 30.5573C170.703 30.0661 170.764 29.4982 170.886 28.8536L172.675 19.9204H177.214L175.449 28.7845C175.357 29.245 175.311 29.6671 175.311 30.0508C175.311 31.7392 176.198 32.5834 177.971 32.5834C178.934 32.5834 179.69 32.2918 180.241 31.7085C180.806 31.1099 181.227 30.1352 181.502 28.7845L183.267 19.9204H187.738L185.927 29.0608C184.949 33.9264 182.113 36.3593 177.421 36.3593Z" fill="white"/>
<path d="M204.157 25.0547C204.157 26.5282 203.768 27.8022 202.988 28.8766C202.209 29.9357 201.116 30.7108 199.709 31.202L202.438 36.0369H197.692L195.307 31.7545H193.015L192.166 36.0369H187.627L190.836 19.9204H197.692C199.74 19.9204 201.33 20.3732 202.461 21.2788C203.592 22.1844 204.157 23.443 204.157 25.0547ZM199.572 25.4921C199.572 24.8321 199.35 24.3409 198.907 24.0186C198.464 23.6809 197.845 23.5121 197.05 23.5121H194.665L193.702 28.2319H196.408C197.417 28.2319 198.196 27.994 198.746 27.5182C199.297 27.0424 199.572 26.367 199.572 25.4921Z" fill="white"/>
<path d="M87.0264 51.2331C86.4734 51.2331 85.971 51.1103 85.5191 50.8647C85.0725 50.6138 84.7216 50.2721 84.4664 49.8396C84.2166 49.4072 84.0916 48.9214 84.0916 48.3821C84.0916 47.8429 84.2166 47.3571 84.4664 46.9247C84.7216 46.4922 85.0725 46.1532 85.5191 45.9076C85.971 45.6567 86.4734 45.5312 87.0264 45.5312C87.5793 45.5312 88.0764 45.654 88.5177 45.8996C88.9643 46.1452 89.3152 46.4869 89.5704 46.9247C89.8255 47.3571 89.9531 47.8429 89.9531 48.3821C89.9531 48.9214 89.8255 49.4099 89.5704 49.8477C89.3152 50.2801 88.9643 50.6191 88.5177 50.8647C88.0764 51.1103 87.5793 51.2331 87.0264 51.2331ZM87.0264 50.7045C87.4676 50.7045 87.8664 50.6058 88.2226 50.4082C88.5788 50.2053 88.8579 49.9277 89.06 49.5754C89.262 49.2177 89.363 48.8199 89.363 48.3821C89.363 47.9444 89.262 47.5493 89.06 47.1969C88.8579 46.8392 88.5788 46.5616 88.2226 46.3641C87.8664 46.1612 87.4676 46.0598 87.0264 46.0598C86.5851 46.0598 86.1837 46.1612 85.8222 46.3641C85.466 46.5616 85.1842 46.8392 84.9768 47.1969C84.7748 47.5493 84.6738 47.9444 84.6738 48.3821C84.6738 48.8199 84.7748 49.2177 84.9768 49.5754C85.1842 49.9277 85.466 50.2053 85.8222 50.4082C86.1837 50.6058 86.5851 50.7045 87.0264 50.7045Z" fill="white"/>
<path d="M93.387 46.9407C93.7804 46.9407 94.1367 47.0314 94.4556 47.213C94.7746 47.3891 95.0245 47.6401 95.2053 47.9657C95.386 48.2914 95.4764 48.6624 95.4764 49.0789C95.4764 49.5006 95.386 49.8743 95.2053 50.2C95.0245 50.5257 94.7746 50.7793 94.4556 50.9608C94.142 51.137 93.7858 51.2251 93.387 51.2251C93.0467 51.2251 92.7384 51.1557 92.4619 51.0168C92.1908 50.8727 91.9675 50.6645 91.792 50.3922V52.7386H91.2258V46.9727H91.7681V47.8056C91.9382 47.5279 92.1615 47.3144 92.438 47.1649C92.7198 47.0154 93.0361 46.9407 93.387 46.9407ZM93.3471 50.7205C93.6395 50.7205 93.9054 50.6538 94.1446 50.5203C94.3839 50.3815 94.5699 50.1867 94.7029 49.9357C94.8411 49.6848 94.9102 49.3992 94.9102 49.0789C94.9102 48.7585 94.8411 48.4756 94.7029 48.23C94.5699 47.9791 94.3839 47.7842 94.1446 47.6454C93.9054 47.5066 93.6395 47.4372 93.3471 47.4372C93.0494 47.4372 92.7809 47.5066 92.5417 47.6454C92.3077 47.7842 92.1217 47.9791 91.9834 48.23C91.8505 48.4756 91.7841 48.7585 91.7841 49.0789C91.7841 49.3992 91.8505 49.6848 91.9834 49.9357C92.1217 50.1867 92.3077 50.3815 92.5417 50.5203C92.7809 50.6538 93.0494 50.7205 93.3471 50.7205Z" fill="white"/>
<path d="M99.6596 47.4772H97.2592V51.185H96.693V46.9727H99.6596V47.4772Z" fill="white"/>
<path d="M101.921 46.9407C102.469 46.9407 102.889 47.0795 103.181 47.3571C103.474 47.6294 103.62 48.0351 103.62 48.5743V51.185H103.078V50.5283C102.95 50.7472 102.761 50.9181 102.512 51.0409C102.267 51.1637 101.975 51.2251 101.634 51.2251C101.166 51.2251 100.794 51.1129 100.518 50.8887C100.241 50.6645 100.103 50.3682 100.103 49.9998C100.103 49.6421 100.231 49.3538 100.486 49.1349C100.746 48.916 101.158 48.8066 101.722 48.8066H103.054V48.5503C103.054 48.1873 102.953 47.9123 102.751 47.7255C102.549 47.5333 102.254 47.4372 101.866 47.4372C101.6 47.4372 101.345 47.4826 101.1 47.5733C100.855 47.6587 100.645 47.7789 100.47 47.9337L100.215 47.5093C100.427 47.3277 100.683 47.1889 100.98 47.0928C101.278 46.9914 101.592 46.9407 101.921 46.9407ZM101.722 50.7766C102.041 50.7766 102.315 50.7045 102.543 50.5604C102.772 50.4109 102.942 50.1973 103.054 49.9197V49.231H101.738C101.02 49.231 100.661 49.4819 100.661 49.9838C100.661 50.2294 100.754 50.4242 100.94 50.5684C101.127 50.7072 101.387 50.7766 101.722 50.7766Z" fill="white"/>
<path d="M105.127 46.9727H105.694V48.8386H108.333V46.9727H108.899V51.185H108.333V49.3271H105.694V51.185H105.127V46.9727Z" fill="white"/>
<path d="M110.509 46.9727H111.075V50.3201L113.874 46.9727H114.377V51.185H113.81V47.8376L111.019 51.185H110.509V46.9727Z" fill="white"/>
<path d="M117.955 48.9908C118.253 49.0602 118.482 49.1803 118.641 49.3511C118.806 49.522 118.888 49.7302 118.888 49.9758C118.888 50.2214 118.803 50.4403 118.633 50.6325C118.468 50.8246 118.242 50.9741 117.955 51.0809C117.668 51.1824 117.352 51.2331 117.006 51.2331C116.703 51.2331 116.405 51.1904 116.113 51.1049C115.821 51.0142 115.565 50.8834 115.347 50.7125L115.539 50.2881C115.73 50.4322 115.954 50.5444 116.209 50.6244C116.464 50.7045 116.722 50.7446 116.982 50.7446C117.37 50.7446 117.687 50.6725 117.931 50.5283C118.181 50.3789 118.306 50.1787 118.306 49.9277C118.306 49.7035 118.205 49.53 118.003 49.4072C117.801 49.2791 117.525 49.215 117.174 49.215H116.456V48.7986H117.142C117.455 48.7986 117.708 48.7398 117.899 48.6224C118.091 48.4996 118.186 48.3368 118.186 48.1339C118.186 47.9097 118.077 47.7335 117.86 47.6054C117.647 47.4772 117.368 47.4132 117.022 47.4132C116.57 47.4132 116.124 47.5279 115.682 47.7575L115.523 47.3171C116.023 47.0555 116.541 46.9247 117.078 46.9247C117.397 46.9247 117.684 46.9727 117.939 47.0688C118.2 47.1596 118.402 47.2904 118.545 47.4612C118.694 47.632 118.769 47.8296 118.769 48.0538C118.769 48.2674 118.694 48.4569 118.545 48.6224C118.402 48.7879 118.205 48.9107 117.955 48.9908Z" fill="white"/>
<path d="M121.617 46.9407C122.165 46.9407 122.585 47.0795 122.877 47.3571C123.17 47.6294 123.316 48.0351 123.316 48.5743V51.185H122.773V50.5283C122.646 50.7472 122.457 50.9181 122.207 51.0409C121.963 51.1637 121.67 51.2251 121.33 51.2251C120.862 51.2251 120.49 51.1129 120.214 50.8887C119.937 50.6645 119.799 50.3682 119.799 49.9998C119.799 49.6421 119.926 49.3538 120.182 49.1349C120.442 48.916 120.854 48.8066 121.418 48.8066H122.75V48.5503C122.75 48.1873 122.649 47.9123 122.446 47.7255C122.244 47.5333 121.949 47.4372 121.561 47.4372C121.295 47.4372 121.04 47.4826 120.796 47.5733C120.551 47.6587 120.341 47.7789 120.166 47.9337L119.91 47.5093C120.123 47.3277 120.378 47.1889 120.676 47.0928C120.974 46.9914 121.287 46.9407 121.617 46.9407ZM121.418 50.7766C121.737 50.7766 122.011 50.7045 122.239 50.5604C122.468 50.4109 122.638 50.1973 122.75 49.9197V49.231H121.434C120.716 49.231 120.357 49.4819 120.357 49.9838C120.357 50.2294 120.45 50.4242 120.636 50.5684C120.822 50.7072 121.083 50.7766 121.418 50.7766Z" fill="white"/>
<path d="M129.193 50.6885V52.2421H128.659V51.185H124.823V46.9727H125.389V50.6885H127.949V46.9727H128.515V50.6885H129.193Z" fill="white"/>
<path d="M130.275 46.9727H130.841V50.3201L133.64 46.9727H134.142V51.185H133.576V47.8376L130.785 51.185H130.275V46.9727Z" fill="white"/>
<path d="M138.987 46.9727V51.185H138.469V49.7916H136.993L136.02 51.185H135.406L136.451 49.7115C136.127 49.6208 135.877 49.4659 135.701 49.247C135.526 49.0281 135.438 48.7505 135.438 48.4142C135.438 47.9444 135.598 47.5867 135.917 47.3411C136.236 47.0955 136.672 46.9727 137.225 46.9727H138.987ZM136.012 48.4302C136.012 49.0548 136.408 49.3672 137.201 49.3672H138.469V47.4772H137.24C136.422 47.4772 136.012 47.7949 136.012 48.4302Z" fill="white"/>
<path d="M146.453 46.9727V51.185H145.887V47.4772H143.255V51.185H142.689V46.9727H146.453Z" fill="white"/>
<path d="M149.793 51.2251C149.389 51.2251 149.025 51.1343 148.7 50.9528C148.376 50.7659 148.121 50.5097 147.935 50.184C147.749 49.8583 147.656 49.4899 147.656 49.0789C147.656 48.6678 147.749 48.2994 147.935 47.9737C148.121 47.6481 148.376 47.3945 148.7 47.213C149.025 47.0314 149.389 46.9407 149.793 46.9407C150.197 46.9407 150.561 47.0314 150.885 47.213C151.21 47.3945 151.462 47.6481 151.643 47.9737C151.829 48.2994 151.922 48.6678 151.922 49.0789C151.922 49.4899 151.829 49.8583 151.643 50.184C151.462 50.5097 151.21 50.7659 150.885 50.9528C150.561 51.1343 150.197 51.2251 149.793 51.2251ZM149.793 50.7205C150.091 50.7205 150.356 50.6538 150.59 50.5203C150.83 50.3815 151.016 50.1867 151.149 49.9357C151.282 49.6848 151.348 49.3992 151.348 49.0789C151.348 48.7585 151.282 48.4729 151.149 48.222C151.016 47.9711 150.83 47.7789 150.59 47.6454C150.356 47.5066 150.091 47.4372 149.793 47.4372C149.495 47.4372 149.227 47.5066 148.987 47.6454C148.753 47.7789 148.567 47.9711 148.429 48.222C148.296 48.4729 148.23 48.7585 148.23 49.0789C148.23 49.3992 148.296 49.6848 148.429 49.9357C148.567 50.1867 148.753 50.3815 148.987 50.5203C149.227 50.6538 149.495 50.7205 149.793 50.7205Z" fill="white"/>
<path d="M155.608 51.185L154.276 49.4232L152.936 51.185H152.298L153.957 49.0228L152.378 46.9727H153.016L154.276 48.6224L155.536 46.9727H156.158L154.579 49.0228L156.254 51.185H155.608Z" fill="white"/>
<path d="M158.765 51.2251C158.361 51.2251 157.996 51.1343 157.672 50.9528C157.348 50.7659 157.093 50.5097 156.906 50.184C156.72 49.8583 156.627 49.4899 156.627 49.0789C156.627 48.6678 156.72 48.2994 156.906 47.9737C157.093 47.6481 157.348 47.3945 157.672 47.213C157.996 47.0314 158.361 46.9407 158.765 46.9407C159.169 46.9407 159.533 47.0314 159.857 47.213C160.181 47.3945 160.434 47.6481 160.615 47.9737C160.801 48.2994 160.894 48.6678 160.894 49.0789C160.894 49.4899 160.801 49.8583 160.615 50.184C160.434 50.5097 160.181 50.7659 159.857 50.9528C159.533 51.1343 159.169 51.2251 158.765 51.2251ZM158.765 50.7205C159.062 50.7205 159.328 50.6538 159.562 50.5203C159.801 50.3815 159.987 50.1867 160.12 49.9357C160.253 49.6848 160.32 49.3992 160.32 49.0789C160.32 48.7585 160.253 48.4729 160.12 48.222C159.987 47.9711 159.801 47.7789 159.562 47.6454C159.328 47.5066 159.062 47.4372 158.765 47.4372C158.467 47.4372 158.198 47.5066 157.959 47.6454C157.725 47.7789 157.539 47.9711 157.401 48.222C157.268 48.4729 157.202 48.7585 157.202 49.0789C157.202 49.3992 157.268 49.6848 157.401 49.9357C157.539 50.1867 157.725 50.3815 157.959 50.5203C158.198 50.6538 158.467 50.7205 158.765 50.7205Z" fill="white"/>
<path d="M166.172 50.6885V52.2021H165.637V51.185H161.881V52.2021H161.347V50.6885H161.586C161.868 50.6725 162.059 50.4643 162.16 50.0639C162.261 49.6635 162.331 49.1029 162.368 48.3821L162.424 46.9727H165.518V50.6885H166.172ZM162.886 48.4142C162.86 49.0121 162.809 49.506 162.735 49.8957C162.66 50.2801 162.527 50.5444 162.336 50.6885H164.952V47.4772H162.934L162.886 48.4142Z" fill="white"/>
<path d="M169.006 51.2251C168.602 51.2251 168.238 51.1343 167.913 50.9528C167.589 50.7659 167.334 50.5097 167.148 50.184C166.962 49.8583 166.868 49.4899 166.868 49.0789C166.868 48.6678 166.962 48.2994 167.148 47.9737C167.334 47.6481 167.589 47.3945 167.913 47.213C168.238 47.0314 168.602 46.9407 169.006 46.9407C169.41 46.9407 169.774 47.0314 170.098 47.213C170.423 47.3945 170.675 47.6481 170.856 47.9737C171.042 48.2994 171.135 48.6678 171.135 49.0789C171.135 49.4899 171.042 49.8583 170.856 50.184C170.675 50.5097 170.423 50.7659 170.098 50.9528C169.774 51.1343 169.41 51.2251 169.006 51.2251ZM169.006 50.7205C169.303 50.7205 169.569 50.6538 169.803 50.5203C170.042 50.3815 170.229 50.1867 170.361 49.9357C170.494 49.6848 170.561 49.3992 170.561 49.0789C170.561 48.7585 170.494 48.4729 170.361 48.222C170.229 47.9711 170.042 47.7789 169.803 47.6454C169.569 47.5066 169.303 47.4372 169.006 47.4372C168.708 47.4372 168.44 47.5066 168.2 47.6454C167.966 47.7789 167.78 47.9711 167.642 48.222C167.509 48.4729 167.443 48.7585 167.443 49.0789C167.443 49.3992 167.509 49.6848 167.642 49.9357C167.78 50.1867 167.966 50.3815 168.2 50.5203C168.44 50.6538 168.708 50.7205 169.006 50.7205Z" fill="white"/>
<path d="M175.017 49.0068C175.586 49.1403 175.87 49.4846 175.87 50.0398C175.87 50.4082 175.734 50.6912 175.463 50.8887C175.192 51.0863 174.788 51.185 174.251 51.185H172.345V46.9727H174.195C174.674 46.9727 175.049 47.0661 175.32 47.253C175.591 47.4398 175.727 47.7068 175.727 48.0538C175.727 48.2834 175.663 48.4809 175.535 48.6464C175.413 48.8066 175.24 48.9267 175.017 49.0068ZM172.895 48.8466H174.155C174.48 48.8466 174.727 48.7852 174.897 48.6624C175.073 48.5396 175.16 48.3608 175.16 48.1259C175.16 47.891 175.073 47.7148 174.897 47.5973C174.727 47.4799 174.48 47.4212 174.155 47.4212H172.895V48.8466ZM174.227 50.7366C174.589 50.7366 174.86 50.6778 175.041 50.5604C175.221 50.4429 175.312 50.2587 175.312 50.0078C175.312 49.7569 175.229 49.5727 175.065 49.4552C174.9 49.3325 174.639 49.2711 174.283 49.2711H172.895V50.7366H174.227Z" fill="white"/>
<path d="M181.956 49.0068C182.525 49.1403 182.809 49.4846 182.809 50.0398C182.809 50.4082 182.674 50.6912 182.402 50.8887C182.131 51.0863 181.727 51.185 181.19 51.185H179.284V46.9727H181.134C181.613 46.9727 181.988 47.0661 182.259 47.253C182.53 47.4398 182.666 47.7068 182.666 48.0538C182.666 48.2834 182.602 48.4809 182.474 48.6464C182.352 48.8066 182.179 48.9267 181.956 49.0068ZM179.835 48.8466H181.095C181.419 48.8466 181.666 48.7852 181.836 48.6624C182.012 48.5396 182.099 48.3608 182.099 48.1259C182.099 47.891 182.012 47.7148 181.836 47.5973C181.666 47.4799 181.419 47.4212 181.095 47.4212H179.835V48.8466ZM181.166 50.7366C181.528 50.7366 181.799 50.6778 181.98 50.5604C182.161 50.4429 182.251 50.2587 182.251 50.0078C182.251 49.7569 182.168 49.5727 182.004 49.4552C181.839 49.3325 181.578 49.2711 181.222 49.2711H179.835V50.7366H181.166Z" fill="white"/>
<path d="M189.19 47.4772H186.79V51.185H186.223V46.9727H189.19V47.4772Z" fill="white"/>
<path d="M191.544 51.2251C191.14 51.2251 190.776 51.1343 190.452 50.9528C190.127 50.7659 189.872 50.5097 189.686 50.184C189.5 49.8583 189.407 49.4899 189.407 49.0789C189.407 48.6678 189.5 48.2994 189.686 47.9737C189.872 47.6481 190.127 47.3945 190.452 47.213C190.776 47.0314 191.14 46.9407 191.544 46.9407C191.948 46.9407 192.312 47.0314 192.637 47.213C192.961 47.3945 193.214 47.6481 193.394 47.9737C193.58 48.2994 193.673 48.6678 193.673 49.0789C193.673 49.4899 193.58 49.8583 193.394 50.184C193.214 50.5097 192.961 50.7659 192.637 50.9528C192.312 51.1343 191.948 51.2251 191.544 51.2251ZM191.544 50.7205C191.842 50.7205 192.108 50.6538 192.342 50.5203C192.581 50.3815 192.767 50.1867 192.9 49.9357C193.033 49.6848 193.099 49.3992 193.099 49.0789C193.099 48.7585 193.033 48.4729 192.9 48.222C192.767 47.9711 192.581 47.7789 192.342 47.6454C192.108 47.5066 191.842 47.4372 191.544 47.4372C191.246 47.4372 190.978 47.5066 190.739 47.6454C190.505 47.7789 190.319 47.9711 190.18 48.222C190.047 48.4729 189.981 48.7585 189.981 49.0789C189.981 49.3992 190.047 49.6848 190.18 49.9357C190.319 50.1867 190.505 50.3815 190.739 50.5203C190.978 50.6538 191.246 50.7205 191.544 50.7205Z" fill="white"/>
<path d="M197.045 46.9407C197.438 46.9407 197.794 47.0314 198.113 47.213C198.432 47.3891 198.682 47.6401 198.863 47.9657C199.044 48.2914 199.134 48.6624 199.134 49.0789C199.134 49.5006 199.044 49.8743 198.863 50.2C198.682 50.5257 198.432 50.7793 198.113 50.9608C197.8 51.137 197.443 51.2251 197.045 51.2251C196.704 51.2251 196.396 51.1557 196.12 51.0168C195.848 50.8727 195.625 50.6645 195.45 50.3922V52.7386H194.884V46.9727H195.426V47.8056C195.596 47.5279 195.819 47.3144 196.096 47.1649C196.377 47.0154 196.694 46.9407 197.045 46.9407ZM197.005 50.7205C197.297 50.7205 197.563 50.6538 197.802 50.5203C198.042 50.3815 198.228 50.1867 198.361 49.9357C198.499 49.6848 198.568 49.3992 198.568 49.0789C198.568 48.7585 198.499 48.4756 198.361 48.23C198.228 47.9791 198.042 47.7842 197.802 47.6454C197.563 47.5066 197.297 47.4372 197.005 47.4372C196.707 47.4372 196.439 47.5066 196.199 47.6454C195.965 47.7842 195.779 47.9791 195.641 48.23C195.508 48.4756 195.442 48.7585 195.442 49.0789C195.442 49.3992 195.508 49.6848 195.641 49.9357C195.779 50.1867 195.965 50.3815 196.199 50.5203C196.439 50.6538 196.707 50.7205 197.005 50.7205Z" fill="white"/>
<path d="M202.113 48.4622C202.639 48.4676 203.041 48.585 203.317 48.8146C203.594 49.0442 203.732 49.3752 203.732 49.8076C203.732 50.2561 203.583 50.6004 203.285 50.8407C202.988 51.0809 202.562 51.1984 202.009 51.193L200.351 51.185V46.9727H200.917V48.4462L202.113 48.4622ZM204.434 46.9727H205V51.185H204.434V46.9727ZM201.978 50.7606C202.366 50.7659 202.658 50.6885 202.855 50.5283C203.057 50.3628 203.158 50.1226 203.158 49.8076C203.158 49.498 203.059 49.2684 202.863 49.1189C202.666 48.9694 202.371 48.892 201.978 48.8867L200.917 48.8706V50.7446L201.978 50.7606Z" fill="white"/>
</g>

</g></symbol><symbol id="ok" viewBox="0 0 9 16">
<path d="M4.5 2.42035C5.41587 2.42035 6.1607 3.18736 6.1607 4.1305C6.1607 5.0708 5.41587 5.83781 4.5 5.83781C3.58413 5.83781 2.8393 5.0708 2.8393 4.1305C2.8393 3.18736 3.58413 2.42035 4.5 2.42035ZM4.5 8.25816C6.71243 8.25816 8.51106 6.40597 8.51106 4.1305C8.51106 1.85219 6.71243 0 4.5 0C2.28757 0 0.491701 1.85219 0.491701 4.1305C0.491701 6.40597 2.28757 8.25816 4.5 8.25816ZM6.12208 11.6273C6.93863 11.4342 7.72485 11.1018 8.45037 10.6331C8.99934 10.278 9.16486 9.53083 8.82003 8.96551C8.47244 8.39735 7.74967 8.22691 7.19795 8.58485C5.55656 9.6473 3.44344 9.6473 1.79929 8.58485C1.25033 8.22691 0.524805 8.39735 0.179975 8.96551C-0.164855 9.53083 0.000663014 10.278 0.549632 10.6331C1.27515 11.1018 2.06136 11.4342 2.87792 11.6273L0.63515 13.934C0.177216 14.4056 0.177216 15.1726 0.63515 15.6442C0.866875 15.88 1.16481 15.9993 1.4655 15.9993C1.76619 15.9993 2.06688 15.88 2.29861 15.6442L4.5 13.3772L6.70415 15.6442C7.16208 16.1186 7.90416 16.1186 8.36485 15.6442C8.82278 15.1726 8.82278 14.4056 8.36485 13.934L6.12208 11.6273Z"/>
</symbol><symbol id="Reddit" viewBox="0 0 14 15">
<path d="M8.36171 0C7.91277 0 7.49149 0.244007 7.22128 0.59589C6.95106 0.947774 6.80213 1.37671 6.69362 1.82877C6.52128 2.55565 6.46808 3.36216 6.45532 4.08904C5.19361 4.17894 4.05105 4.57962 3.10211 5.19863C2.717 4.85188 2.25317 4.65925 1.80849 4.66438C1.3021 4.66952 0.821252 4.90325 0.463803 5.38356C-0.219178 6.30051 -0.140455 7.80051 0.651038 8.69178C0.602102 8.96661 0.565931 9.24914 0.565931 9.53425C0.565931 12.5548 3.44679 15 7 15C10.5532 15 13.4341 12.5522 13.4341 9.53425C13.4341 9.24914 13.3979 8.96661 13.349 8.69178C14.1405 7.80051 14.2192 6.30051 13.5362 5.38356C13.1788 4.90325 12.6979 4.66952 12.1915 4.66438C11.7468 4.65925 11.283 4.85188 10.8979 5.19863C9.9532 4.58219 8.81703 4.18151 7.5617 4.08904C7.57873 3.41866 7.62341 2.7226 7.74894 2.19863C7.82766 1.86986 7.92128 1.63099 8.02128 1.5C8.12128 1.36901 8.19362 1.31507 8.36171 1.31507C8.72554 1.31507 8.77235 1.44092 8.9915 1.74658C9.10214 1.90068 9.2298 2.09332 9.43405 2.28082C9.63831 2.46832 9.94044 2.63014 10.2681 2.63014V1.31507C10.1766 1.31507 10.1596 1.3125 10.0979 1.25342C10.0362 1.19435 9.95108 1.05822 9.82554 0.883562C9.57448 0.531678 9.08724 0 8.36171 0ZM11.9021 0.123288C11.0553 0.123288 10.3702 0.950343 10.3702 1.9726C10.3702 2.99486 11.0553 3.82192 11.9021 3.82192C12.749 3.82192 13.4341 2.99486 13.4341 1.9726C13.4341 0.950343 12.749 0.123288 11.9021 0.123288ZM11.9021 0.780822C12.4468 0.780822 12.8894 1.31507 12.8894 1.9726C12.8894 2.63014 12.4468 3.16438 11.9021 3.16438C11.3575 3.16438 10.9149 2.63014 10.9149 1.9726C10.9149 1.31507 11.3575 0.780822 11.9021 0.780822ZM7 5.11644C10.0149 5.11644 12.566 7.14298 12.566 9.53425C12.566 11.9281 10.0149 13.9521 7 13.9521C3.98509 13.9521 1.43402 11.9281 1.43402 9.53425C1.43402 7.14298 3.98509 5.11644 7 5.11644ZM1.82551 5.71233C1.97658 5.7149 2.13402 5.75599 2.28509 5.83562C1.73828 6.33647 1.30423 6.91182 1.00849 7.56164C0.80423 7.05308 0.85955 6.41866 1.11061 6.08219C1.29359 5.83562 1.54679 5.70976 1.82551 5.71233ZM12.1745 5.71233C12.4532 5.70976 12.7064 5.83562 12.8894 6.08219C13.1405 6.41866 13.1958 7.05308 12.9915 7.56164C12.6958 6.91182 12.2617 6.33647 11.7149 5.83562C11.866 5.75599 12.0234 5.7149 12.1745 5.71233ZM4.82127 7.35616C4.27658 7.35616 3.83403 7.89041 3.83403 8.54795C3.83403 9.20548 4.27658 9.73973 4.82127 9.73973C5.36595 9.73973 5.80851 9.20548 5.80851 8.54795C5.80851 7.89041 5.36595 7.35616 4.82127 7.35616ZM9.17873 7.35616C8.63405 7.35616 8.19149 7.89041 8.19149 8.54795C8.19149 9.20548 8.63405 9.73973 9.17873 9.73973C9.72342 9.73973 10.166 9.20548 10.166 8.54795C10.166 7.89041 9.72342 7.35616 9.17873 7.35616ZM4.29361 11.4041C4.64042 12.2697 5.71276 13.1096 7 13.1096C8.28724 13.1096 9.37661 12.2697 9.72342 11.4041C9.09363 11.8947 8.10001 12.226 7 12.226C5.9 12.226 4.9234 11.8947 4.29361 11.4041Z"/>
</symbol><symbol id="tours-location" viewBox="0 0 9 12"><g fill="white">
  <path d="M4.49981 0C2.01874 0 0 1.98191 0 4.41796C0 5.05338 0.132472 5.66006 0.39354 6.2213C1.51862 8.63833 3.67571 11.1902 4.31017 11.9146C4.35771 11.9688 4.42701 12 4.49994 12C4.57287 12 4.64217 11.9688 4.6897 11.9146C5.32392 11.1903 7.48101 8.63857 8.60646 6.2213C8.86765 5.66006 9 5.05338 9 4.41796C8.99975 1.98191 6.98101 0 4.49981 0ZM4.49981 6.71267C3.21099 6.71267 2.16234 5.68315 2.16234 4.41784C2.16234 3.15241 3.21099 2.12289 4.49981 2.12289C5.78864 2.12289 6.83728 3.15241 6.83728 4.41784C6.83741 5.68315 5.78876 6.71267 4.49981 6.71267Z" fill="white"/>
</g></symbol><symbol id="vk-footer" viewBox="0 0 16 9">
<path d="M15.8574 8.02743C15.8144 7.95645 15.5484 7.38659 14.2683 6.21531C12.9282 4.98883 13.1082 5.18799 14.7223 3.06728C15.7054 1.77572 16.0984 0.986988 15.9754 0.649804C15.8584 0.328395 15.1353 0.413184 15.1353 0.413184L12.7312 0.426986C12.7312 0.426986 12.5531 0.403324 12.4201 0.481212C12.2911 0.558114 12.2081 0.735579 12.2081 0.735579C12.2081 0.735579 11.8271 1.7353 11.3191 2.58516C10.248 4.37855 9.81894 4.4732 9.64393 4.36179C9.2369 4.10249 9.33891 3.31869 9.33891 2.76263C9.33891 1.02445 9.60593 0.299803 8.81787 0.112478C8.55585 0.0503654 8.36384 0.00895679 7.69479 0.00205536C6.83672 -0.00681791 6.10967 0.00501311 5.69864 0.203183C5.42462 0.335296 5.21361 0.630086 5.34262 0.646846C5.50163 0.667551 5.86165 0.74248 6.05267 0.998819C6.29969 1.3291 6.29069 2.07248 6.29069 2.07248C6.29069 2.07248 6.4327 4.11827 5.95966 4.37263C5.63464 4.54714 5.1896 4.19122 4.23453 2.56347C3.7455 1.73037 3.37547 0.808537 3.37547 0.808537C3.37547 0.808537 3.30447 0.636987 3.17746 0.545297C3.02345 0.433888 2.80743 0.398395 2.80743 0.398395L0.521262 0.412198C0.521262 0.412198 0.178236 0.422057 0.0522271 0.568959C-0.0597811 0.700086 0.0432264 0.970227 0.0432264 0.970227C0.0432264 0.970227 1.83336 5.09827 3.85951 7.17954C5.71864 9.0873 7.8288 8.96208 7.8288 8.96208H8.78487C8.78487 8.96208 9.07389 8.93054 9.2209 8.77377C9.35691 8.62983 9.35191 8.35969 9.35191 8.35969C9.35191 8.35969 9.33291 7.09475 9.92895 6.90842C10.516 6.72504 11.2701 8.13095 12.0691 8.67222C12.6732 9.08138 13.1322 8.99166 13.1322 8.99166L15.2693 8.96208C15.2693 8.96208 16.3874 8.89406 15.8574 8.02743Z"/>
</symbol><symbol id="vk" viewBox="0 0 24 24">
<!--<rect x="0.5" y="0.5" width="23" height="23"/>-->
<path d="M18.9258 15.2249C18.9088 15.1883 18.893 15.1579 18.8783 15.1336C18.6354 14.6955 18.1712 14.1577 17.4861 13.5201L17.4716 13.5055L17.4643 13.4983L17.457 13.491H17.4497C17.1387 13.1941 16.9418 12.9945 16.8593 12.8923C16.7084 12.6976 16.6746 12.5005 16.7571 12.3008C16.8154 12.1499 17.0342 11.8313 17.4131 11.3446C17.6125 11.0866 17.7703 10.8798 17.8869 10.724C18.7276 9.60458 19.0921 8.88922 18.9803 8.5777L18.9369 8.5049C18.9077 8.46107 18.8324 8.42098 18.711 8.38441C18.5894 8.34793 18.434 8.34189 18.2444 8.36621L16.1452 8.38073C16.1111 8.36866 16.0626 8.36979 15.9993 8.38441C15.9361 8.39904 15.9045 8.40638 15.9045 8.40638L15.868 8.42466L15.839 8.44663C15.8147 8.46115 15.788 8.4867 15.7588 8.52321C15.7297 8.5596 15.7055 8.6023 15.6861 8.65096C15.4575 9.23987 15.1977 9.78741 14.906 10.2935C14.7262 10.5954 14.5611 10.8569 14.4103 11.0784C14.2597 11.2998 14.1333 11.4629 14.0313 11.5674C13.9292 11.6721 13.837 11.7559 13.7543 11.8193C13.6716 11.8826 13.6085 11.9094 13.5649 11.8996C13.5211 11.8898 13.4798 11.8801 13.4408 11.8704C13.3728 11.8266 13.3181 11.767 13.2769 11.6915C13.2355 11.6161 13.2076 11.5211 13.193 11.4068C13.1785 11.2923 13.17 11.1939 13.1675 11.1111C13.1652 11.0284 13.1663 10.9115 13.1712 10.7606C13.1763 10.6097 13.1785 10.5076 13.1785 10.454C13.1785 10.269 13.1821 10.0683 13.1894 9.85171C13.1967 9.63513 13.2027 9.46353 13.2076 9.33711C13.2126 9.21056 13.2149 9.07668 13.2149 8.93553C13.2149 8.79438 13.2063 8.68369 13.1894 8.60335C13.1726 8.52311 13.1469 8.44522 13.113 8.36971C13.0789 8.29428 13.0291 8.23593 12.9636 8.1945C12.898 8.15313 12.8165 8.1203 12.7194 8.0959C12.4618 8.03753 12.1338 8.00595 11.7353 8.00104C10.8315 7.99132 10.2507 8.04978 9.99317 8.17632C9.89112 8.22979 9.79878 8.30284 9.71621 8.39526C9.62872 8.50237 9.61651 8.56082 9.67968 8.57044C9.97129 8.61419 10.1777 8.71885 10.2992 8.88431L10.343 8.97199C10.3771 9.03526 10.4111 9.14725 10.4451 9.30783C10.4791 9.46842 10.501 9.64605 10.5107 9.84064C10.5349 10.196 10.5349 10.5002 10.5107 10.7532C10.4863 11.0064 10.4634 11.2034 10.4414 11.3446C10.4195 11.4857 10.3867 11.6001 10.343 11.6877C10.2992 11.7753 10.2701 11.8288 10.2555 11.8483C10.2409 11.8677 10.2288 11.88 10.2191 11.8848C10.156 11.909 10.0903 11.9213 10.0223 11.9213C9.95418 11.9213 9.87162 11.8872 9.77445 11.8191C9.6773 11.7509 9.57648 11.6573 9.47198 11.538C9.36749 11.4187 9.24964 11.252 9.11838 11.0379C8.98723 10.8238 8.85115 10.5707 8.71023 10.2787L8.59363 10.0669C8.52074 9.93068 8.42117 9.7323 8.29481 9.47197C8.16839 9.21154 8.05664 8.95962 7.95949 8.71627C7.92066 8.61406 7.86232 8.53625 7.78458 8.48271L7.7481 8.46074C7.72385 8.44131 7.68491 8.42067 7.6315 8.39868C7.57801 8.37672 7.5222 8.36097 7.46384 8.35127L5.4666 8.3658C5.26251 8.3658 5.12403 8.41211 5.05111 8.50459L5.02193 8.54835C5.00735 8.57271 5 8.61163 5 8.6652C5 8.71875 5.01458 8.78446 5.04376 8.86227C5.33532 9.54858 5.65239 10.2105 5.99496 10.848C6.33753 11.4856 6.63522 11.9992 6.88784 12.3883C7.14052 12.7777 7.39807 13.1452 7.6605 13.4907C7.92293 13.8363 8.09665 14.0577 8.18164 14.155C8.26673 14.2525 8.33357 14.3254 8.38216 14.3741L8.56442 14.5492C8.68104 14.6661 8.8523 14.806 9.07828 14.969C9.3043 15.1321 9.55453 15.2927 9.82908 15.451C10.1037 15.609 10.4232 15.738 10.7877 15.8378C11.1521 15.9376 11.5068 15.9777 11.8519 15.9584H12.6902C12.8602 15.9437 12.989 15.8901 13.0765 15.7977L13.1055 15.7611C13.125 15.7321 13.1433 15.6869 13.1601 15.6262C13.1772 15.5654 13.1857 15.4984 13.1857 15.4255C13.1807 15.2162 13.1966 15.0276 13.2329 14.8597C13.2693 14.6919 13.3107 14.5653 13.357 14.4801C13.4033 14.395 13.4555 14.3231 13.5136 14.2649C13.5719 14.2065 13.6134 14.1711 13.6378 14.159C13.662 14.1467 13.6813 14.1384 13.6959 14.1334C13.8125 14.0945 13.9498 14.1322 14.1079 14.2467C14.2658 14.361 14.414 14.5023 14.5525 14.6701C14.691 14.8381 14.8575 15.0266 15.0518 15.2358C15.2463 15.4451 15.4163 15.6007 15.562 15.7031L15.7078 15.7907C15.8051 15.8492 15.9314 15.9027 16.087 15.9514C16.2422 16 16.3782 16.0122 16.495 15.9878L18.361 15.9587C18.5456 15.9587 18.6892 15.9281 18.7911 15.8674C18.8931 15.8065 18.9538 15.7395 18.9733 15.6666C18.9928 15.5936 18.9939 15.5108 18.977 15.4183C18.9597 15.3259 18.9427 15.2614 18.9258 15.2249Z"/>
</symbol></svg>