<svg xmlns="http://www.w3.org/2000/svg" xmlns:xlink="http://www.w3.org/1999/xlink">
  <defs>
    <clipPath id="clip0_1914_447">
      <rect width="12" height="12" fill="white"/>
    </clipPath>

    <clipPath id="clip0_1914_443">
      <rect width="12" height="12" fill="white"/>
    </clipPath>
  </defs>
  <symbol id="hero-level" viewBox="0 0 12 12">
    <g fill="none">
      <g clip-path="url(#clip0_1914_447)">
        <path d="M10.909 11.4545H8.94536V0.54541H10.909V11.4545Z" stroke="white" stroke-miterlimit="16"
              stroke-linecap="round"/>
        <path d="M6.98173 11.4545V3.52062H5.01809L5.0181 11.4545H6.98173Z" stroke="white" stroke-miterlimit="16"
              stroke-linecap="round"/>
        <path d="M3.05446 11.4545V6.49582H1.09082V11.4545H3.05446Z" stroke="white" stroke-miterlimit="16"
              stroke-linecap="round"/>
      </g>

    </g>
  </symbol>
  <symbol id="hero-moon" viewBox="0 0 12 12">
    <g fill="none">
      <g clip-path="url(#clip0_1914_443)">
        <path
          d="M11.1966 6.75379C11.0851 6.72581 10.9736 6.75379 10.876 6.82374C10.5135 7.13153 10.0953 7.38335 9.6352 7.55123C9.20301 7.71912 8.72901 7.80306 8.22712 7.80306C7.09786 7.80306 6.0662 7.34138 5.32731 6.5999C4.58841 5.85842 4.12835 4.82314 4.12835 3.68994C4.12835 3.21427 4.212 2.75259 4.35141 2.33289C4.50477 1.8852 4.72783 1.47949 5.0206 1.12973C5.14607 0.975839 5.11819 0.751995 4.96483 0.626083C4.86724 0.556132 4.75571 0.528152 4.64418 0.556132C3.45916 0.877907 2.4275 1.59141 1.6886 2.54274C0.977593 3.48008 0.54541 4.64127 0.54541 5.91438C0.54541 7.43931 1.15883 8.82434 2.16261 9.83164C3.16639 10.8389 4.54659 11.4545 6.0662 11.4545C7.34881 11.4545 8.53383 11.0068 9.48184 10.2653C10.4438 9.50986 11.1409 8.43262 11.4336 7.20148C11.5033 6.99163 11.3918 6.79576 11.1966 6.75379ZM9.0636 9.67774C8.255 10.3213 7.22334 10.713 6.09408 10.713C4.76965 10.713 3.57069 10.1674 2.70633 9.30001C1.84196 8.43262 1.29825 7.22946 1.29825 5.90039C1.29825 4.79516 1.66072 3.78787 2.28808 2.97644C2.72027 2.41683 3.26398 1.95515 3.89134 1.63338C3.82164 1.78727 3.75193 1.94116 3.69617 2.10904C3.51493 2.61269 3.43128 3.14432 3.43128 3.70393C3.43128 5.033 3.97499 6.25015 4.83936 7.11754C5.70373 7.98493 6.91663 8.53055 8.24106 8.53055C8.8266 8.53055 9.38425 8.43262 9.90008 8.23675C10.0813 8.1668 10.2626 8.09685 10.4299 8.01291C10.0953 8.65646 9.6352 9.23006 9.0636 9.67774Z"
          fill="white"/>
      </g>

    </g>
  </symbol>
  <symbol id="ok" viewBox="0 0 9 16">
    <g fill="none">
      <path
        d="M4.5 2.42035C5.41587 2.42035 6.1607 3.18736 6.1607 4.1305C6.1607 5.0708 5.41587 5.83781 4.5 5.83781C3.58413 5.83781 2.8393 5.0708 2.8393 4.1305C2.8393 3.18736 3.58413 2.42035 4.5 2.42035ZM4.5 8.25816C6.71243 8.25816 8.51106 6.40597 8.51106 4.1305C8.51106 1.85219 6.71243 0 4.5 0C2.28757 0 0.491701 1.85219 0.491701 4.1305C0.491701 6.40597 2.28757 8.25816 4.5 8.25816ZM6.12208 11.6273C6.93863 11.4342 7.72485 11.1018 8.45037 10.6331C8.99934 10.278 9.16486 9.53083 8.82003 8.96551C8.47244 8.39735 7.74967 8.22691 7.19795 8.58485C5.55656 9.6473 3.44344 9.6473 1.79929 8.58485C1.25033 8.22691 0.524805 8.39735 0.179975 8.96551C-0.164855 9.53083 0.000663014 10.278 0.549632 10.6331C1.27515 11.1018 2.06136 11.4342 2.87792 11.6273L0.63515 13.934C0.177216 14.4056 0.177216 15.1726 0.63515 15.6442C0.866875 15.88 1.16481 15.9993 1.4655 15.9993C1.76619 15.9993 2.06688 15.88 2.29861 15.6442L4.5 13.3772L6.70415 15.6442C7.16208 16.1186 7.90416 16.1186 8.36485 15.6442C8.82278 15.1726 8.82278 14.4056 8.36485 13.934L6.12208 11.6273Z"
        fill="#2D383F"/>
    </g>
  </symbol>
  <symbol id="Reddit" viewBox="0 0 14 15">
    <g fill="none">
      <path
        d="M8.36171 0C7.91277 0 7.49149 0.244007 7.22128 0.59589C6.95106 0.947774 6.80213 1.37671 6.69362 1.82877C6.52128 2.55565 6.46808 3.36216 6.45532 4.08904C5.19361 4.17894 4.05105 4.57962 3.10211 5.19863C2.717 4.85188 2.25317 4.65925 1.80849 4.66438C1.3021 4.66952 0.821252 4.90325 0.463803 5.38356C-0.219178 6.30051 -0.140455 7.80051 0.651038 8.69178C0.602102 8.96661 0.565931 9.24914 0.565931 9.53425C0.565931 12.5548 3.44679 15 7 15C10.5532 15 13.4341 12.5522 13.4341 9.53425C13.4341 9.24914 13.3979 8.96661 13.349 8.69178C14.1405 7.80051 14.2192 6.30051 13.5362 5.38356C13.1788 4.90325 12.6979 4.66952 12.1915 4.66438C11.7468 4.65925 11.283 4.85188 10.8979 5.19863C9.9532 4.58219 8.81703 4.18151 7.5617 4.08904C7.57873 3.41866 7.62341 2.7226 7.74894 2.19863C7.82766 1.86986 7.92128 1.63099 8.02128 1.5C8.12128 1.36901 8.19362 1.31507 8.36171 1.31507C8.72554 1.31507 8.77235 1.44092 8.9915 1.74658C9.10214 1.90068 9.2298 2.09332 9.43405 2.28082C9.63831 2.46832 9.94044 2.63014 10.2681 2.63014V1.31507C10.1766 1.31507 10.1596 1.3125 10.0979 1.25342C10.0362 1.19435 9.95108 1.05822 9.82554 0.883562C9.57448 0.531678 9.08724 0 8.36171 0ZM11.9021 0.123288C11.0553 0.123288 10.3702 0.950343 10.3702 1.9726C10.3702 2.99486 11.0553 3.82192 11.9021 3.82192C12.749 3.82192 13.4341 2.99486 13.4341 1.9726C13.4341 0.950343 12.749 0.123288 11.9021 0.123288ZM11.9021 0.780822C12.4468 0.780822 12.8894 1.31507 12.8894 1.9726C12.8894 2.63014 12.4468 3.16438 11.9021 3.16438C11.3575 3.16438 10.9149 2.63014 10.9149 1.9726C10.9149 1.31507 11.3575 0.780822 11.9021 0.780822ZM7 5.11644C10.0149 5.11644 12.566 7.14298 12.566 9.53425C12.566 11.9281 10.0149 13.9521 7 13.9521C3.98509 13.9521 1.43402 11.9281 1.43402 9.53425C1.43402 7.14298 3.98509 5.11644 7 5.11644ZM1.82551 5.71233C1.97658 5.7149 2.13402 5.75599 2.28509 5.83562C1.73828 6.33647 1.30423 6.91182 1.00849 7.56164C0.80423 7.05308 0.85955 6.41866 1.11061 6.08219C1.29359 5.83562 1.54679 5.70976 1.82551 5.71233ZM12.1745 5.71233C12.4532 5.70976 12.7064 5.83562 12.8894 6.08219C13.1405 6.41866 13.1958 7.05308 12.9915 7.56164C12.6958 6.91182 12.2617 6.33647 11.7149 5.83562C11.866 5.75599 12.0234 5.7149 12.1745 5.71233ZM4.82127 7.35616C4.27658 7.35616 3.83403 7.89041 3.83403 8.54795C3.83403 9.20548 4.27658 9.73973 4.82127 9.73973C5.36595 9.73973 5.80851 9.20548 5.80851 8.54795C5.80851 7.89041 5.36595 7.35616 4.82127 7.35616ZM9.17873 7.35616C8.63405 7.35616 8.19149 7.89041 8.19149 8.54795C8.19149 9.20548 8.63405 9.73973 9.17873 9.73973C9.72342 9.73973 10.166 9.20548 10.166 8.54795C10.166 7.89041 9.72342 7.35616 9.17873 7.35616ZM4.29361 11.4041C4.64042 12.2697 5.71276 13.1096 7 13.1096C8.28724 13.1096 9.37661 12.2697 9.72342 11.4041C9.09363 11.8947 8.10001 12.226 7 12.226C5.9 12.226 4.9234 11.8947 4.29361 11.4041Z"
        fill="#2D383F"/>
    </g>
  </symbol>
  <symbol id="tours-location" viewBox="0 0 9 12">
    <g fill="white">
      <path
        d="M4.49981 0C2.01874 0 0 1.98191 0 4.41796C0 5.05338 0.132472 5.66006 0.39354 6.2213C1.51862 8.63833 3.67571 11.1902 4.31017 11.9146C4.35771 11.9688 4.42701 12 4.49994 12C4.57287 12 4.64217 11.9688 4.6897 11.9146C5.32392 11.1903 7.48101 8.63857 8.60646 6.2213C8.86765 5.66006 9 5.05338 9 4.41796C8.99975 1.98191 6.98101 0 4.49981 0ZM4.49981 6.71267C3.21099 6.71267 2.16234 5.68315 2.16234 4.41784C2.16234 3.15241 3.21099 2.12289 4.49981 2.12289C5.78864 2.12289 6.83728 3.15241 6.83728 4.41784C6.83741 5.68315 5.78876 6.71267 4.49981 6.71267Z"
        fill="white"/>
    </g>
  </symbol>
  <symbol id="vk-footer" viewBox="0 0 16 9">
    <g fill="none">
      <path
        d="M15.8574 8.02743C15.8144 7.95645 15.5484 7.38659 14.2683 6.21531C12.9282 4.98883 13.1082 5.18799 14.7223 3.06728C15.7054 1.77572 16.0984 0.986988 15.9754 0.649804C15.8584 0.328395 15.1353 0.413184 15.1353 0.413184L12.7312 0.426986C12.7312 0.426986 12.5531 0.403324 12.4201 0.481212C12.2911 0.558114 12.2081 0.735579 12.2081 0.735579C12.2081 0.735579 11.8271 1.7353 11.3191 2.58516C10.248 4.37855 9.81894 4.4732 9.64393 4.36179C9.2369 4.10249 9.33891 3.31869 9.33891 2.76263C9.33891 1.02445 9.60593 0.299803 8.81787 0.112478C8.55585 0.0503654 8.36384 0.00895679 7.69479 0.00205536C6.83672 -0.00681791 6.10967 0.00501311 5.69864 0.203183C5.42462 0.335296 5.21361 0.630086 5.34262 0.646846C5.50163 0.667551 5.86165 0.74248 6.05267 0.998819C6.29969 1.3291 6.29069 2.07248 6.29069 2.07248C6.29069 2.07248 6.4327 4.11827 5.95966 4.37263C5.63464 4.54714 5.1896 4.19122 4.23453 2.56347C3.7455 1.73037 3.37547 0.808537 3.37547 0.808537C3.37547 0.808537 3.30447 0.636987 3.17746 0.545297C3.02345 0.433888 2.80743 0.398395 2.80743 0.398395L0.521262 0.412198C0.521262 0.412198 0.178236 0.422057 0.0522271 0.568959C-0.0597811 0.700086 0.0432264 0.970227 0.0432264 0.970227C0.0432264 0.970227 1.83336 5.09827 3.85951 7.17954C5.71864 9.0873 7.8288 8.96208 7.8288 8.96208H8.78487C8.78487 8.96208 9.07389 8.93054 9.2209 8.77377C9.35691 8.62983 9.35191 8.35969 9.35191 8.35969C9.35191 8.35969 9.33291 7.09475 9.92895 6.90842C10.516 6.72504 11.2701 8.13095 12.0691 8.67222C12.6732 9.08138 13.1322 8.99166 13.1322 8.99166L15.2693 8.96208C15.2693 8.96208 16.3874 8.89406 15.8574 8.02743Z"
        fill="#2D383F"/>
    </g>
  </symbol>
  <symbol id="vk" viewBox="0 0 24 24">
    <g fill="none">
      <rect x="0.5" y="0.5" width="23" height="23" stroke="#0266C1" stroke-opacity="0.1"/>
      <path
        d="M18.9258 15.2249C18.9088 15.1883 18.893 15.1579 18.8783 15.1336C18.6354 14.6955 18.1712 14.1577 17.4861 13.5201L17.4716 13.5055L17.4643 13.4983L17.457 13.491H17.4497C17.1387 13.1941 16.9418 12.9945 16.8593 12.8923C16.7084 12.6976 16.6746 12.5005 16.7571 12.3008C16.8154 12.1499 17.0342 11.8313 17.4131 11.3446C17.6125 11.0866 17.7703 10.8798 17.8869 10.724C18.7276 9.60458 19.0921 8.88922 18.9803 8.5777L18.9369 8.5049C18.9077 8.46107 18.8324 8.42098 18.711 8.38441C18.5894 8.34793 18.434 8.34189 18.2444 8.36621L16.1452 8.38073C16.1111 8.36866 16.0626 8.36979 15.9993 8.38441C15.9361 8.39904 15.9045 8.40638 15.9045 8.40638L15.868 8.42466L15.839 8.44663C15.8147 8.46115 15.788 8.4867 15.7588 8.52321C15.7297 8.5596 15.7055 8.6023 15.6861 8.65096C15.4575 9.23987 15.1977 9.78741 14.906 10.2935C14.7262 10.5954 14.5611 10.8569 14.4103 11.0784C14.2597 11.2998 14.1333 11.4629 14.0313 11.5674C13.9292 11.6721 13.837 11.7559 13.7543 11.8193C13.6716 11.8826 13.6085 11.9094 13.5649 11.8996C13.5211 11.8898 13.4798 11.8801 13.4408 11.8704C13.3728 11.8266 13.3181 11.767 13.2769 11.6915C13.2355 11.6161 13.2076 11.5211 13.193 11.4068C13.1785 11.2923 13.17 11.1939 13.1675 11.1111C13.1652 11.0284 13.1663 10.9115 13.1712 10.7606C13.1763 10.6097 13.1785 10.5076 13.1785 10.454C13.1785 10.269 13.1821 10.0683 13.1894 9.85171C13.1967 9.63513 13.2027 9.46353 13.2076 9.33711C13.2126 9.21056 13.2149 9.07668 13.2149 8.93553C13.2149 8.79438 13.2063 8.68369 13.1894 8.60335C13.1726 8.52311 13.1469 8.44522 13.113 8.36971C13.0789 8.29428 13.0291 8.23593 12.9636 8.1945C12.898 8.15313 12.8165 8.1203 12.7194 8.0959C12.4618 8.03753 12.1338 8.00595 11.7353 8.00104C10.8315 7.99132 10.2507 8.04978 9.99317 8.17632C9.89112 8.22979 9.79878 8.30284 9.71621 8.39526C9.62872 8.50237 9.61651 8.56082 9.67968 8.57044C9.97129 8.61419 10.1777 8.71885 10.2992 8.88431L10.343 8.97199C10.3771 9.03526 10.4111 9.14725 10.4451 9.30783C10.4791 9.46842 10.501 9.64605 10.5107 9.84064C10.5349 10.196 10.5349 10.5002 10.5107 10.7532C10.4863 11.0064 10.4634 11.2034 10.4414 11.3446C10.4195 11.4857 10.3867 11.6001 10.343 11.6877C10.2992 11.7753 10.2701 11.8288 10.2555 11.8483C10.2409 11.8677 10.2288 11.88 10.2191 11.8848C10.156 11.909 10.0903 11.9213 10.0223 11.9213C9.95418 11.9213 9.87162 11.8872 9.77445 11.8191C9.6773 11.7509 9.57648 11.6573 9.47198 11.538C9.36749 11.4187 9.24964 11.252 9.11838 11.0379C8.98723 10.8238 8.85115 10.5707 8.71023 10.2787L8.59363 10.0669C8.52074 9.93068 8.42117 9.7323 8.29481 9.47197C8.16839 9.21154 8.05664 8.95962 7.95949 8.71627C7.92066 8.61406 7.86232 8.53625 7.78458 8.48271L7.7481 8.46074C7.72385 8.44131 7.68491 8.42067 7.6315 8.39868C7.57801 8.37672 7.5222 8.36097 7.46384 8.35127L5.4666 8.3658C5.26251 8.3658 5.12403 8.41211 5.05111 8.50459L5.02193 8.54835C5.00735 8.57271 5 8.61163 5 8.6652C5 8.71875 5.01458 8.78446 5.04376 8.86227C5.33532 9.54858 5.65239 10.2105 5.99496 10.848C6.33753 11.4856 6.63522 11.9992 6.88784 12.3883C7.14052 12.7777 7.39807 13.1452 7.6605 13.4907C7.92293 13.8363 8.09665 14.0577 8.18164 14.155C8.26673 14.2525 8.33357 14.3254 8.38216 14.3741L8.56442 14.5492C8.68104 14.6661 8.8523 14.806 9.07828 14.969C9.3043 15.1321 9.55453 15.2927 9.82908 15.451C10.1037 15.609 10.4232 15.738 10.7877 15.8378C11.1521 15.9376 11.5068 15.9777 11.8519 15.9584H12.6902C12.8602 15.9437 12.989 15.8901 13.0765 15.7977L13.1055 15.7611C13.125 15.7321 13.1433 15.6869 13.1601 15.6262C13.1772 15.5654 13.1857 15.4984 13.1857 15.4255C13.1807 15.2162 13.1966 15.0276 13.2329 14.8597C13.2693 14.6919 13.3107 14.5653 13.357 14.4801C13.4033 14.395 13.4555 14.3231 13.5136 14.2649C13.5719 14.2065 13.6134 14.1711 13.6378 14.159C13.662 14.1467 13.6813 14.1384 13.6959 14.1334C13.8125 14.0945 13.9498 14.1322 14.1079 14.2467C14.2658 14.361 14.414 14.5023 14.5525 14.6701C14.691 14.8381 14.8575 15.0266 15.0518 15.2358C15.2463 15.4451 15.4163 15.6007 15.562 15.7031L15.7078 15.7907C15.8051 15.8492 15.9314 15.9027 16.087 15.9514C16.2422 16 16.3782 16.0122 16.495 15.9878L18.361 15.9587C18.5456 15.9587 18.6892 15.9281 18.7911 15.8674C18.8931 15.8065 18.9538 15.7395 18.9733 15.6666C18.9928 15.5936 18.9939 15.5108 18.977 15.4183C18.9597 15.3259 18.9427 15.2614 18.9258 15.2249Z"
        fill="#2D383F"/>
    </g>
  </symbol>
</svg>
